<?xml version="1.0" encoding="utf-8"?>
<!-- Generator: Adobe Illustrator 18.1.1, SVG Export Plug-In . SVG Version: 6.00 Build 0)  -->
<svg version="1.1" id="Layer_1" xmlns="http://www.w3.org/2000/svg" xmlns:xlink="http://www.w3.org/1999/xlink" x="0px" y="0px"
	 viewBox="0 0 1280 800" enable-background="new 0 0 1280 800" xml:space="preserve">
<path fill="#1B8480" d="M688.8,190.4c38.8,0,53.9,31.2,59.2,49.6l47.4,155.1c9.7,33.4-33.4,47.4-43.1,15.1l-42-142.2h-11.8
	l73.3,253.1h-67.9v197.1c0,33.4-50.6,33.4-50.6,0V519h-21.5v198.2c0,33.4-50.6,33.4-50.6,0V520.1h-67.9l73.3-253.1h-11.8l-42,142.2
	c-9.7,31.2-52.8,18.3-43.1-15.1l47.4-155.1c5.4-17.2,20.5-49.6,59.2-49.6L688.8,190.4L688.8,190.4z"/>
<circle fill="#1B8480" cx="642.4" cy="124.7" r="54.9"/>
</svg>
