<?xml version="1.0" encoding="utf-8"?>
<!-- Generator: Adobe Illustrator 19.2.0, SVG Export Plug-In . SVG Version: 6.00 Build 0)  -->
<svg version="1.1" id="Layer_1" xmlns="http://www.w3.org/2000/svg" xmlns:xlink="http://www.w3.org/1999/xlink" x="0px" y="0px"
	 viewBox="0 0 600 730.2" style="enable-background:new 0 0 600 730.2;" xml:space="preserve">
<style type="text/css">
	.st0{fill:#1B8480;}
</style>
<path class="st0" d="M352.3,129.4c41.6,0,57.8,33.5,63.6,53.2L466.7,349c10.4,35.8-35.8,50.8-46.2,16.2l-45.1-152.6h-12.7
	l78.6,271.6h-72.8v211.5c0,35.8-54.3,35.8-54.3,0V481.9h-23.1v212.6c0,35.8-54.3,35.8-54.3,0V483H164l78.6-271.6h-12.7l-45.1,152.5
	c-10.4,33.5-56.6,19.6-46.2-16.2l50.8-166.3c5.8-18.5,22-53.2,63.6-53.2L352.3,129.4L352.3,129.4z"/>
<circle class="st0" cx="302.6" cy="58.9" r="58.9"/>
</svg>
